<?xml version="1.0" standalone="no"?>
<!DOCTYPE svg PUBLIC "-//W3C//DTD SVG 20010904//EN"
 "http://www.w3.org/TR/2001/REC-SVG-20010904/DTD/svg10.dtd">
<svg version="1.0" xmlns="http://www.w3.org/2000/svg"
 width="512.000000pt" height="512.000000pt" viewBox="0 0 512.000000 512.000000"
 preserveAspectRatio="xMidYMid meet">
<metadata>
Created by potrace 1.11, written by Peter Selinger 2001-2013
</metadata>
<g transform="translate(0.000000,512.000000) scale(0.100000,-0.100000)"
fill="#000000" stroke="none">
<path d="M1470 4676 c-202 -42 -336 -234 -375 -535 -8 -60 -9 -298 -2 -351 3
-19 8 -65 12 -101 4 -36 19 -124 34 -196 l27 -130 -101 -33 c-713 -231 -1044
-612 -849 -977 122 -231 450 -449 877 -583 37 -12 67 -26 67 -31 0 -5 -11 -65
-24 -132 -24 -121 -30 -155 -44 -292 -15 -143 -3 -349 28 -471 23 -90 87 -225
128 -269 158 -171 399 -190 702 -57 148 66 370 209 490 318 19 18 55 50 80 72
l44 40 81 -72 c227 -206 452 -346 651 -409 99 -31 149 -39 239 -38 222 2 374
135 448 391 34 117 38 150 42 345 4 178 -8 304 -45 484 -11 52 -20 98 -20 102
0 4 37 20 83 34 245 81 528 227 653 338 16 14 38 34 50 44 87 77 170 208 195
308 14 55 7 164 -14 223 -37 106 -134 225 -267 327 -139 107 -402 236 -615
302 -44 14 -84 29 -88 33 -4 4 3 63 17 131 14 68 28 153 32 189 3 36 8 79 10
95 6 52 6 278 0 325 -32 233 -77 353 -170 457 -89 99 -193 139 -340 130 -112
-7 -141 -12 -230 -44 -200 -71 -443 -227 -656 -422 -60 -55 -73 -60 -92 -33
-20 28 -194 171 -283 233 -293 205 -572 297 -775 255z m2164 -211 c86 -41 150
-172 174 -360 9 -70 8 -314 -1 -370 -3 -16 -11 -66 -17 -110 -21 -149 -39
-214 -58 -210 -59 12 -234 45 -267 50 -23 3 -50 7 -60 9 -11 2 -45 7 -75 11
-30 3 -66 8 -80 10 -14 2 -52 7 -85 10 -33 3 -60 7 -61 8 -28 51 -282 373
-361 458 l-42 45 71 65 c335 304 693 464 862 384z m-1909 -7 c89 -24 246 -101
355 -173 95 -64 247 -185 299 -239 34 -35 35 -36 15 -54 -25 -24 -126 -138
-155 -177 -13 -16 -26 -32 -30 -35 -3 -3 -50 -63 -103 -135 -54 -71 -99 -131
-100 -132 -1 -1 -24 -4 -51 -7 -86 -8 -306 -38 -380 -52 -61 -11 -181 -35
-198 -40 -10 -3 -16 -2 -15 3 1 4 -6 42 -15 83 -9 41 -20 93 -23 115 -3 22 -7
42 -9 45 -10 16 -20 185 -19 315 1 170 18 264 63 360 33 71 59 99 116 126 51
24 153 23 250 -3z m1018 -806 c45 -56 83 -106 85 -110 1 -4 -121 -8 -272 -8
-244 0 -274 2 -266 16 7 12 111 138 242 292 l23 27 53 -57 c29 -31 90 -103
135 -160z m234 -337 c21 -7 48 -44 141 -195 79 -127 166 -279 237 -414 l76
-145 -47 -93 c-105 -209 -351 -627 -386 -655 -7 -6 -56 -14 -108 -17 -94 -7
-558 -8 -655 -2 -27 2 -64 4 -82 5 -28 1 -38 10 -96 99 -69 105 -187 299 -187
308 0 3 -8 18 -19 32 -10 15 -53 93 -94 174 l-76 146 66 129 c82 160 194 353
291 503 41 63 76 117 79 120 11 12 172 17 493 14 190 -1 355 -5 367 -9z
m-1127 -34 c0 -4 -15 -29 -33 -56 -31 -46 -196 -334 -229 -398 l-14 -28 -32
80 c-53 130 -121 330 -114 335 4 2 25 7 47 11 22 4 49 10 60 12 67 14 165 30
230 39 28 3 51 7 53 8 5 5 32 2 32 -3z m1505 -6 c22 -3 51 -8 65 -10 14 -3 41
-7 60 -10 72 -11 195 -38 203 -45 11 -10 -129 -400 -144 -400 -3 0 -30 44 -59
98 -30 53 -71 125 -92 160 -21 34 -38 64 -38 67 0 2 -20 36 -45 74 -25 38 -45
72 -45 76 0 4 12 4 28 1 15 -3 45 -8 67 -11z m-2094 -230 c51 -147 89 -245
144 -370 54 -121 54 -107 -7 -251 -51 -117 -122 -308 -160 -424 -8 -25 -22
-46 -31 -48 -22 -4 -274 91 -382 145 -273 136 -455 319 -458 460 -3 144 169
318 452 455 110 54 366 149 390 145 9 -1 30 -45 52 -112z m2764 73 c44 -16 89
-32 100 -35 11 -3 76 -32 144 -64 272 -129 445 -283 475 -426 28 -128 -137
-316 -409 -463 -136 -73 -420 -180 -434 -164 -4 5 -15 34 -25 64 -35 103 -123
325 -171 428 l-47 103 40 92 c54 123 124 301 163 414 36 107 22 102 164 51z
m-395 -1013 c82 -215 81 -201 17 -215 -58 -13 -355 -60 -376 -60 -11 0 -11 4
1 23 22 32 188 320 233 401 l38 69 14 -34 c8 -19 41 -101 73 -184z m-1979 70
c40 -71 101 -177 136 -234 65 -106 72 -123 51 -116 -7 2 -35 6 -63 9 -27 3
-61 8 -75 10 -14 3 -57 10 -97 16 -39 6 -77 13 -85 14 -7 2 -32 7 -55 11 -24
4 -43 9 -43 10 0 9 55 167 88 255 59 155 62 163 66 159 2 -2 37 -62 77 -134z
m2123 -537 c55 -249 65 -475 31 -693 -6 -44 -44 -154 -63 -184 -25 -41 -74
-91 -105 -107 -67 -36 -208 -22 -345 33 -146 58 -360 201 -516 345 l-69 63 83
95 c45 52 128 156 184 231 55 75 110 148 121 162 18 23 29 27 100 32 44 3 89
8 100 10 11 2 42 7 69 10 87 10 384 66 392 74 1 0 9 -32 18 -71z m-2300 36
c22 -3 43 -7 46 -9 3 -2 33 -7 65 -10 33 -4 62 -9 65 -10 3 -2 33 -6 65 -10
33 -3 67 -8 75 -10 8 -2 53 -7 100 -11 47 -4 92 -8 100 -9 8 -1 57 -58 109
-126 52 -68 146 -182 208 -254 l112 -130 -62 -58 c-84 -79 -250 -204 -342
-256 -271 -156 -492 -189 -594 -89 -53 52 -101 164 -119 278 -14 93 -5 462 13
490 2 3 6 26 10 50 8 55 33 169 40 180 3 5 19 4 37 0 17 -5 49 -12 72 -16z
m1349 -114 c-16 -25 -122 -160 -132 -170 -4 -3 -23 -25 -43 -50 -20 -25 -48
-57 -61 -72 l-24 -28 -54 62 c-52 60 -229 276 -229 281 0 1 126 2 280 2 l279
0 -16 -25z"/>
<path d="M2421 2971 c-181 -68 -292 -222 -292 -406 0 -287 276 -492 553 -411
175 52 302 225 300 411 -2 170 -92 311 -247 386 -58 28 -80 33 -164 36 -78 3
-106 0 -150 -16z"/>
</g>
</svg>
